<?xml version="1.0" encoding="utf-8"?>
<!-- Generator: Adobe Illustrator 25.4.0, SVG Export Plug-In . SVG Version: 6.00 Build 0)  -->
<svg version="1.1" id="Слой_1" xmlns="http://www.w3.org/2000/svg" xmlns:xlink="http://www.w3.org/1999/xlink" x="0px" y="0px"
	 viewBox="0 0 75 75" style="enable-background:new 0 0 75 75;" xml:space="preserve">
<style type="text/css">
	.st0{fill:#E3B873;}
	.st1{fill:#FFFFFF;stroke:#FFFFFF;stroke-width:0.1;}
</style>
<g>
	<circle class="st0" cx="37.5" cy="37.5" r="36"/>
</g>
<path class="st1" d="M37.84,44.78c-0.38,0-0.69,0.3-0.69,0.67v1.32c0,0.37,0.31,0.67,0.69,0.67s0.69-0.3,0.69-0.67v-1.32
	C38.53,45.08,38.22,44.78,37.84,44.78z"/>
<path class="st1" d="M54.56,35.5L54.56,35.5c-0.45-2.16-1.46-4.19-2.93-5.88c-1.41-1.63-3.21-2.91-5.22-3.72
	c-0.33-1.34-1.02-2.71-2.37-3.75c-1.32-1.01-2.65-1.2-2.7-1.21l0,0c-0.2-0.03-0.4,0.03-0.55,0.16c-0.15,0.13-0.24,0.31-0.24,0.51
	v3.3h-2.22c-0.59-1.91-2.41-3.31-4.56-3.31c-2.2,0-4.05,1.46-4.6,3.44c-3.15,0.43-6.04,1.92-8.19,4.23l0.04,0.03l-0.04-0.03
	c-2.27,2.44-3.52,5.6-3.52,8.9c0,7.39,3.93,13.4,5.14,15.07c0.38,0.53,1.01,0.84,1.67,0.84h2.71c1.13,0,2.05-0.89,2.05-2v-0.8
	c0.67,0.1,1.35,0.15,2.03,0.15h6.11v0.65c0,1.1,0.92,2,2.05,2h2.98c0.96,0,1.8-0.66,2-1.58l0.32-1.46c4.18-1,7.54-3.86,9.2-7.56
	h2.49c0.75,0,1.37-0.6,1.37-1.33v-5.3c0-0.36-0.14-0.69-0.4-0.94c-0.26-0.25-0.6-0.39-0.97-0.39h0l0,0l0,0h0l0,0l0,0h0L54.56,35.5
	C54.56,35.5,54.56,35.5,54.56,35.5z M56.18,42.09L56.18,42.09l0,0.04h-1.97c0.34-1.04,0.54-2.14,0.6-3.27
	c0.02-0.37-0.27-0.69-0.65-0.7c-0.38-0.02-0.7,0.26-0.72,0.64c-0.27,5.02-3.76,9.32-8.62,10.77l0.87-3.97
	c0.08-0.36-0.16-0.72-0.53-0.8c-0.37-0.08-0.74,0.15-0.82,0.52l-1.52,6.9c-0.07,0.3-0.34,0.52-0.66,0.52H39.2
	c-0.37,0-0.67-0.29-0.67-0.65v-2.65c0-0.37-0.31-0.67-0.69-0.67s-0.69,0.3-0.69,0.67v0.65h-6.11c-0.68,0-1.36-0.06-2.03-0.16v-4.46
	c0-0.37-0.31-0.67-0.69-0.67s-0.69,0.3-0.69,0.67v6.62c0,0.36-0.3,0.65-0.67,0.65h-2.71c-0.22,0-0.42-0.1-0.55-0.27l0,0
	c-1.15-1.59-4.89-7.3-4.89-14.29c0-2.96,1.12-5.8,3.16-8l-0.04-0.03l0.04,0.03c1.85-1.99,4.32-3.31,7.02-3.75
	c0.01,0.39,0.08,0.77,0.19,1.14h-0.19c-0.38,0-0.69,0.3-0.69,0.67s0.31,0.67,0.69,0.67h9.51c0.38,0,0.69-0.3,0.69-0.67
	s-0.31-0.67-0.69-0.67h-0.19c0.13-0.42,0.19-0.86,0.2-1.31h2.02v1.32c0,0.37,0.31,0.67,0.69,0.67c0.38,0,0.69-0.3,0.69-0.67v-5.07
	c0.59,0.23,1.42,0.68,2.11,1.53c0.71,0.89,1.28,2.22,1.28,4.2c0,0.37,0.31,0.67,0.69,0.67s0.69-0.3,0.69-0.67
	c0-0.24-0.01-0.49-0.03-0.75c1.5,0.72,2.84,1.75,3.93,3c1.31,1.52,2.22,3.35,2.63,5.28c0.13,0.62,0.69,1.08,1.34,1.08l1.63,0V42.09z
	 M33.76,22.94c1.87,0,3.39,1.48,3.39,3.3c0,0.45-0.1,0.9-0.28,1.32h-6.22c-0.18-0.41-0.28-0.86-0.28-1.32
	C30.37,24.42,31.89,22.94,33.76,22.94z"/>
<path class="st1" d="M45.41,35.94L45.41,35.94c0.4-1.05,1.47-1.76,2.65-1.76c1.18,0,2.25,0.71,2.65,1.76c0,0,0,0,0,0l-0.05,0.02
	c0.12,0.32-0.04,0.68-0.37,0.8L45.41,35.94z M45.41,35.94c-0.13,0.35,0.05,0.73,0.4,0.86 M45.41,35.94l0.4,0.86 M45.82,36.8
	c0.35,0.13,0.75-0.05,0.88-0.39L45.82,36.8z M50.07,36.85c0.08,0,0.16-0.01,0.24-0.04l-3.61-0.39c0.2-0.53,0.75-0.89,1.36-0.89
	c0.61,0,1.16,0.36,1.36,0.89C49.53,36.68,49.79,36.85,50.07,36.85z"/>
<path class="st1" d="M36.71,38.58c-0.65-0.44-1.49-0.71-2.26-0.92v-3.08c0.59,0.08,1.1,0.25,1.45,0.46
	c0.37,0.22,0.57,0.48,0.57,0.71c0,0.37,0.31,0.67,0.69,0.67s0.69-0.3,0.69-0.67c0-0.66-0.37-1.24-0.99-1.68
	c-0.6-0.44-1.45-0.74-2.41-0.84v-0.03c0-0.37-0.31-0.67-0.69-0.67s-0.69,0.3-0.69,0.67v0.03c-0.96,0.1-1.8,0.4-2.41,0.84
	c-0.61,0.44-0.99,1.03-0.99,1.68c0,0.93,0.47,1.56,1.14,2.01c0.65,0.44,1.49,0.71,2.26,0.92v3.08c-0.59-0.08-1.1-0.25-1.45-0.46
	c-0.37-0.22-0.57-0.48-0.57-0.71c0-0.37-0.31-0.67-0.69-0.67s-0.69,0.3-0.69,0.67c0,0.66,0.37,1.24,0.99,1.68
	c0.6,0.44,1.45,0.74,2.41,0.84v0.03c0,0.37,0.31,0.67,0.69,0.67s0.69-0.3,0.69-0.67V43.1c0.96-0.1,1.8-0.4,2.41-0.84
	c0.61-0.44,0.99-1.03,0.99-1.68C37.85,39.66,37.38,39.03,36.71,38.58z M33.08,34.57v2.7c-0.75-0.23-1.25-0.45-1.57-0.69
	c-0.32-0.25-0.45-0.51-0.45-0.83c0-0.23,0.2-0.48,0.57-0.71C31.98,34.82,32.48,34.65,33.08,34.57z M35.9,41.29
	c-0.36,0.21-0.86,0.39-1.45,0.46v-2.7c0.75,0.23,1.25,0.45,1.57,0.69c0.32,0.25,0.45,0.51,0.45,0.83
	C36.47,40.81,36.28,41.07,35.9,41.29z"/>
</svg>
